<svg xmlns="http://www.w3.org/2000/svg" viewBox="0 0 400 222.25"><defs><style>.cls-1{fill:#fff;}</style></defs><g id="Layer_2" data-name="Layer 2"><g id="Layer_1-2" data-name="Layer 1"><path class="cls-1" d="M114.73,37.86a12.79,12.79,0,0,0,9-3.67,12.27,12.27,0,0,0,3.66-9,12.29,12.29,0,0,0-3.66-9,12.43,12.43,0,0,0-9-3.91,12.71,12.71,0,0,0-9.28,3.91,12.29,12.29,0,0,0-3.66,9,12.27,12.27,0,0,0,3.66,9A13.09,13.09,0,0,0,114.73,37.86Z"/><path class="cls-1" d="M230.26,12a5.66,5.66,0,0,0,4.15-1.71,5.66,5.66,0,0,0,1.71-4.15A5.67,5.67,0,0,0,234.41,2a5.39,5.39,0,0,0-8.3,0,5.32,5.32,0,0,0-2,4.16,5.31,5.31,0,0,0,2,4.15A5.63,5.63,0,0,0,230.26,12Z"/><path class="cls-1" d="M125.72,170a12.78,12.78,0,0,0-9,22,12.39,12.39,0,0,0,18.07,0,12.95,12.95,0,0,0-9-22Z"/><path class="cls-1" d="M169,13.68A5.67,5.67,0,0,0,173.11,12a5.7,5.7,0,0,0,1.71-4.15,5.71,5.71,0,0,0-1.71-4.16,5.4,5.4,0,0,0-8.31,0,5.67,5.67,0,0,0-1.71,4.16A5.66,5.66,0,0,0,164.8,12,5.66,5.66,0,0,0,169,13.68Z"/><path class="cls-1" d="M173.84,161.68A93,93,0,0,0,313.3,192.94a383.44,383.44,0,0,1-59.84-7.08Q209.74,177.31,173.84,161.68Z"/><path class="cls-1" d="M221.22,214.19c-2.77,0-4.15,1.31-4.15,3.91q0,4.16,4.15,4.15t4.15-4.15C225.37,215.5,224,214.19,221.22,214.19Z"/><path class="cls-1" d="M178,183.17a8.47,8.47,0,0,0-5.86,2.2,8,8,0,0,0-2.44,5.86,7.21,7.21,0,0,0,2.44,5.62,8,8,0,0,0,5.86,2.44,8.35,8.35,0,0,0,8.06-8.06,8,8,0,0,0-2.44-5.86A7.64,7.64,0,0,0,178,183.17Z"/><path class="cls-1" d="M227.25,77.73c-2.39-2.51-5.69-3.76-9.93-3.76H174.67a4.49,4.49,0,0,0-3.3,1.36,4.09,4.09,0,0,0-1.31,2.83V96.07h47.26q6.26,0,9.83-3.15a10.74,10.74,0,0,0,3.3-7.9A9.11,9.11,0,0,0,227.25,77.73Z"/><path class="cls-1" d="M62.24,74H19.59a4.33,4.33,0,0,0-3.25,1.36A4.49,4.49,0,0,0,15,78.63v47H62.24a13.35,13.35,0,0,0,13.27-13.27V87.28a12.82,12.82,0,0,0-3.91-9.41A12.67,12.67,0,0,0,62.24,74Z"/><path class="cls-1" d="M351.4,101.11c1,5.22,1.3,9.28,1,12.21q26.63,17.84,26.63,34,0,9.53-9.77,16.36-9.28,6.6-26.63,9.77Q306.21,180,254.92,170,208.09,160.89,174,142.9h18.9q28,12.09,63.51,19,46.39,9,80.35,4.16a89.15,89.15,0,0,0,12-39.08l.25-.25v-4.64l.24-.73v-3.91c-.16-2.28-.33-4.47-.49-6.59-.65-4.55-1.31-8.55-1.95-12-.65-2.77-1.39-5.37-2.2-7.81v-.49l-.49-1.47-.24-.49c-.17-.48-.33-1-.49-1.46l-.25-.25q-.73-2.19-1.71-4.64l-.24-.24a6.23,6.23,0,0,0-.73-1.46v-.49a3,3,0,0,1-.74-1.22l-.24-.49a32,32,0,0,0-2.2-4.15l-.24-.49a12.45,12.45,0,0,0-.74-1.22l-.24-.49a3.89,3.89,0,0,0-.73-1l-.25-.49a9.67,9.67,0,0,1-.73-1.22l-.24-.49c-.49-.64-1.07-1.38-1.71-2.19l-.25-.49a7.79,7.79,0,0,1-.73-1l-.49-.73a6.89,6.89,0,0,1-.73-1L329.9,63l-1-1-.25-.49-1-1-.25-.24a11.26,11.26,0,0,0-1.71-2.2l-.49-.49a7.79,7.79,0,0,1-.73-1l-.49-.49c-.33-.32-.65-.64-1-1l-.49-.49-1-1-.49-.49-1.46-1.46c-.33-.33-.58-.49-.74-.49l-.73-.73-.73-.74-.73-.73-1-.49-.73-.73c0-.16-.25-.4-.74-.73l-.73-.49a10.37,10.37,0,0,0-1.46-1.22l-.74-.49a7.46,7.46,0,0,1-1-.73l-.74-.49-1-.73-.74-.49L307,42l-.74-.49-1.46-1-.73-.49a12,12,0,0,0-1.23-.73c-.16,0-.4-.16-.73-.49a2.36,2.36,0,0,1-1-.49l-1-.48-1-.49-.73-.49a9,9,0,0,1-1.22-.49l-.74-.24a15.29,15.29,0,0,0-1.71-1l-.73-.24a9.6,9.6,0,0,1-1.22-.49l-.73-.49a9,9,0,0,1-1.22-.49l-.74-.24a9,9,0,0,0-1.22-.49l-.73-.25a8.91,8.91,0,0,1-1.95-.73h-.49a3.67,3.67,0,0,0-1.47-.49L283.5,31a9,9,0,0,1-1.22-.49l-1-.24a4.12,4.12,0,0,1-1.22-.25l-.73-.24c-.49-.16-1.06-.33-1.71-.49h-.25c-.65-.16-1.38-.33-2.19-.49h-.49a7.76,7.76,0,0,1-1.47-.49h-.73a4.71,4.71,0,0,0-1.47-.24l-.73-.25h-1.46l-.74-.24a8.62,8.62,0,0,1-2.19-.25h-2.2l-.74-.24h-3.66l-.73-.24h-4.15a3.46,3.46,0,0,0-1.47.24h-3.91a5.52,5.52,0,0,1-1.71.24h-.24a2.73,2.73,0,0,0-1.22.25h-.49a4.71,4.71,0,0,0-1.47.24h-.48a4.17,4.17,0,0,0-1.23.25h-.48a4.71,4.71,0,0,1-1.47.24h-.49a2.76,2.76,0,0,1-1.22.25l-.24.24a4.71,4.71,0,0,0-1.47.24h-.49a2.63,2.63,0,0,1-1.22.25l-.49.24a2.76,2.76,0,0,0-1.22.25l-.49.24a4.12,4.12,0,0,0-1.22.25l-.49.24-1,.24-.74.25a4.11,4.11,0,0,0-1.22.24l-.49.25-1,.24-.49.24a3.87,3.87,0,0,1-1.22.25l-.73.49-.74.24-.49.25-1.46.48-.49.25-.73.24-.73.25a9.81,9.81,0,0,1-1.23.49l-.48.24-.74.49-.73.24-.73.25a3.06,3.06,0,0,1-1.22.73l-.49.24-.74.49-.48.25a10.74,10.74,0,0,0-1.22.48l-.74.49-.73.49-.49.25a3,3,0,0,0-1.22.73l-.49.24-.73.49-.49.25a3.11,3.11,0,0,1-1.22.73l-.49.49-.73.49-.49.24-.73.49a3.89,3.89,0,0,0-1,.73l-.73.49-.25.24-.73.49-1,.73-.73.74-.24.24-.74.49h-.24l-.73.73-.74.74-.24.24-.73.49-.49.49a7.54,7.54,0,0,1-1.22,1l-.25.25-.73.73-.24.24A4.61,4.61,0,0,1,190.94,54l-.25.24L190,55l-.25.49a4.57,4.57,0,0,0-1.22,1.22l-.24.25-1.54,1.71H13.38A13.38,13.38,0,0,0,0,72v70.9H154.16q42,23.41,100.76,34.9Q315,189.52,357.5,181.71q20-3.68,31-11.24Q400,162.42,400,151.42,400,127,351.4,101.11ZM246.28,87.28A20.72,20.72,0,0,1,267,66.54h54.75V74H267a12.67,12.67,0,0,0-9.36,3.9,12.84,12.84,0,0,0-3.9,9.41v25.11A13.33,13.33,0,0,0,267,125.66h54.75v7.43H267a20.72,20.72,0,0,1-20.74-20.7ZM83,112.39a20.71,20.71,0,0,1-20.74,20.7H7.5V78.63A11.61,11.61,0,0,1,11,70.07a11.71,11.71,0,0,1,8.56-3.53H62.24A20.71,20.71,0,0,1,83,87.28ZM154.36,74H103.24A4.44,4.44,0,0,0,100,75.33a4.49,4.49,0,0,0-1.36,3.3V95h55.73v7.47H98.63v23.24h55.73v7.43H91.2V78.63a12.05,12.05,0,0,1,12-12.09h51.12Zm15.7,59.12h-7.48V78.16a11.08,11.08,0,0,1,3.53-8.09,11.71,11.71,0,0,1,8.56-3.53h42.65q9.6,0,15.34,6.07A16.45,16.45,0,0,1,237.88,85q0,9.41-8.52,14.91a19.75,19.75,0,0,1,8.7,16.89v16.27h-7.47V116.82a13.33,13.33,0,0,0-13.27-13.31H170.06Z"/></g></g></svg>